<svg xmlns="http://www.w3.org/2000/svg" width="141" height="40" viewBox="0 0 141 40" fill="none"><g clip-path="url(#clip0_311_72)"><path d="M35.6001 29.6505C35.6001 30.1273 35.9252 30.3441 36.3153 30.3441C36.7055 30.3441 36.8897 30.1599 36.8897 29.9323C36.8897 29.618 36.5646 29.4771 36.0119 29.1412C34.874 28.4693 34.6139 28.0574 34.6139 27.418C34.6139 26.6053 35.2966 26.0526 36.1853 26.0526C37.1931 26.0526 37.8325 26.8003 37.8434 27.754H36.7488C36.7488 27.3205 36.5212 27.0821 36.1961 27.0821C35.936 27.0821 35.7193 27.223 35.7193 27.4614C35.7193 27.7432 35.9252 27.8732 36.4237 28.155C37.4532 28.7402 38.0059 29.1845 38.0059 29.9648C38.0059 30.8751 37.2148 31.3736 36.3262 31.3736C35.1232 31.3736 34.5164 30.485 34.5164 29.6397H35.6109L35.6001 29.6505Z" fill="white"></path><path d="M46.5997 28.7293C46.5997 27.8407 45.9712 27.1038 45.0609 27.1038C44.1505 27.1038 43.5112 27.8407 43.5112 28.7293C43.5112 29.618 44.1397 30.3441 45.0609 30.3441C45.982 30.3441 46.5997 29.6071 46.5997 28.7293ZM42.4058 28.7293C42.4058 27.2555 43.5762 26.0742 45.0609 26.0742C46.5456 26.0742 47.7051 27.2555 47.7051 28.7293C47.7051 30.2032 46.5347 31.3844 45.0609 31.3844C43.587 31.3844 42.4058 30.2032 42.4058 28.7293Z" fill="white"></path><path d="M55.7464 30.2682V31.3086H52.5386V26.1393H53.6331V30.2682H55.7464Z" fill="white"></path><path d="M62.422 31.3844C61.0782 31.3844 60.2871 30.6692 60.2871 29.0219V26.1393H61.3925V29.0219C61.3925 30.0081 61.7393 30.3441 62.422 30.3441C63.1048 30.3441 63.4516 30.019 63.4516 29.0219V26.1393H64.5461V29.0219C64.5461 30.6584 63.755 31.3844 62.4112 31.3844" fill="white"></path><path d="M72.7173 27.1796H71.5252V31.3086H70.4198V27.1796H69.2385V26.1393H72.7173V27.1796Z" fill="white"></path><path d="M78.4285 26.1393H77.334V31.3086H78.4285V26.1393Z" fill="white"></path><path d="M87.2606 28.7293C87.2606 27.8407 86.6321 27.1038 85.7218 27.1038C84.8114 27.1038 84.172 27.8407 84.172 28.7293C84.172 29.618 84.8006 30.3441 85.7218 30.3441C86.6429 30.3441 87.2606 29.6071 87.2606 28.7293ZM83.0667 28.7293C83.0667 27.2555 84.2371 26.0742 85.7109 26.0742C87.1848 26.0742 88.3552 27.2555 88.3552 28.7293C88.3552 30.2032 87.1848 31.3844 85.7109 31.3844C84.2371 31.3844 83.0667 30.2032 83.0667 28.7293Z" fill="white"></path><path d="M97.7187 26.1393V31.3086H96.6133L94.2183 27.9816V31.3086H93.1238V26.1393H94.2183L96.6133 29.4663V26.1393H97.7187Z" fill="white"></path><path d="M103.473 29.6505C103.473 30.1273 103.798 30.3441 104.188 30.3441C104.579 30.3441 104.763 30.1599 104.763 29.9323C104.763 29.618 104.438 29.4771 103.885 29.1412C102.747 28.4693 102.487 28.0574 102.487 27.418C102.487 26.6053 103.17 26.0526 104.058 26.0526C105.066 26.0526 105.706 26.8003 105.716 27.754H104.622C104.622 27.3205 104.394 27.0821 104.069 27.0821C103.809 27.0821 103.592 27.223 103.592 27.4614C103.592 27.7432 103.798 27.8732 104.297 28.155C105.326 28.7402 105.879 29.1845 105.879 29.9648C105.879 30.8751 105.088 31.3736 104.199 31.3736C102.996 31.3736 102.389 30.485 102.389 29.6397H103.484L103.473 29.6505Z" fill="white"></path><path d="M38.1358 22.628C37.1063 22.628 36.1959 22.5305 35.4048 22.3246C34.6246 22.1295 33.8985 21.8802 33.2266 21.5768V18.3582H33.53C34.2127 18.9325 34.9497 19.3769 35.7733 19.6803C36.5861 19.9837 37.3772 20.1463 38.1466 20.1463C38.3417 20.1463 38.591 20.1246 38.9052 20.0813C39.2195 20.0379 39.4796 19.9729 39.6747 19.8754C39.9131 19.7778 40.1082 19.6261 40.2707 19.4419C40.4333 19.2577 40.52 19.0192 40.52 18.7158C40.52 18.3798 40.3899 18.0981 40.119 17.8922C39.8589 17.6863 39.5338 17.5237 39.1653 17.4262C38.7102 17.307 38.2117 17.1878 37.6915 17.0794C37.1713 16.971 36.6836 16.841 36.2285 16.6784C35.1773 16.3099 34.4295 15.8114 33.9743 15.1937C33.5192 14.5652 33.2916 13.7849 33.2916 12.8529C33.2916 11.5849 33.8334 10.5662 34.8955 9.77513C35.9684 8.99485 37.3013 8.60471 38.9052 8.60471C39.7072 8.60471 40.5091 8.68057 41.3111 8.85397C42.1022 9.01653 42.8175 9.23327 43.446 9.51504V12.6036H43.1534C42.6549 12.181 42.0372 11.8125 41.3219 11.5199C40.5958 11.2273 39.8589 11.0756 39.1003 11.0756C38.8077 11.0756 38.5368 11.0973 38.2984 11.1406C38.0599 11.184 37.8107 11.2598 37.5506 11.3899C37.3447 11.4874 37.1605 11.6283 37.0087 11.8125C36.857 11.9967 36.7812 12.2135 36.7812 12.4519C36.7812 12.7987 36.9004 13.0696 37.1496 13.2755C37.3989 13.4814 37.8649 13.6548 38.5693 13.8282C39.0244 13.9258 39.4579 14.0341 39.8806 14.1208C40.3032 14.2184 40.7476 14.3484 41.2244 14.5218C42.1564 14.8578 42.8608 15.3129 43.316 15.8873C43.7711 16.4617 43.9987 17.2094 43.9987 18.1523C43.9987 19.4961 43.4677 20.5798 42.4165 21.3926C41.3653 22.2054 39.9348 22.6172 38.1358 22.6172" fill="white"></path><path d="M57.166 22.3896H53.7632V16.3966H49.1465V22.3896H45.7437V8.85397H49.1465V13.8066H53.7632V8.85397H57.166V22.3896Z" fill="white"></path><path d="M80.2707 8.85397L75.6107 22.3896H72.067L67.407 8.85397H70.9399L73.8876 18.0222L76.8245 8.85397H80.2707Z" fill="white"></path><path d="M87.8354 17.1769L86.4374 12.6903L85.0394 17.1769H87.8245H87.8354ZM80.0651 22.3896L84.6384 8.8648H88.3447L92.918 22.3896H89.4176L88.5723 19.6586H84.2808L83.4463 22.3896H80.0435H80.0651Z" fill="white"></path><path d="M105.868 22.3896H102.595L97.361 12.9504V22.3896H94.2507V8.85397H98.4339L102.758 16.6025V8.85397H105.868V22.3896Z" fill="white"></path><path d="M111.2 22.3896V11.4441H107.201V8.85397H118.602V11.4441H114.603V22.3896H111.2Z" fill="white"></path><path d="M124.801 22.3896H121.376L121.387 20.0163L121.376 8.85397H124.801V22.3896Z" fill="white"></path><path d="M140.45 22.3896H136.516L133.893 18.0872L131.238 22.3896H127.478L131.888 15.5622L127.64 8.85397H131.574L134.034 12.9396L136.537 8.85397H140.298L136.05 15.4321L140.45 22.3896Z" fill="white"></path><path d="M64.7739 22.3896H61.3494L61.3602 20.0163L61.3494 8.85397H64.7739V22.3896Z" fill="white"></path><path d="M15.1397 37.5616L1.09468 15.1612C-1.37619 11.2381 0.476965 6.39393 5.22365 4.35654L9.67772 2.43836L23.7227 24.828C26.1827 28.7619 24.3404 33.5952 19.5937 35.6326L15.1397 37.5508V37.5616Z" fill="white"></path><path d="M9.14657 37.5616L1.48469 40L0 32.5224L3.94473 30.2466C6.2964 28.8919 9.22243 30.6042 9.18992 33.3243L9.13574 37.5616H9.14657Z" fill="white"></path><path d="M15.6598 2.43836L23.3217 -1.90735e-06L24.8064 7.47765L20.8617 9.75345C18.51 11.1081 15.584 9.39583 15.6165 6.6757L15.6707 2.43836H15.6598Z" fill="white"></path></g><defs><clipPath id="clip0_311_72"><rect width="140.45" height="40" fill="white"></rect></clipPath></defs></svg>